<mxfile host="app.diagrams.net" modified="2023-12-06T13:50:52.043Z" agent="Mozilla/5.0 (Windows NT 10.0; Win64; x64) AppleWebKit/537.36 (KHTML, like Gecko) Chrome/119.0.0.0 Safari/537.36" etag="1BUtTkYqpjIOKS9jNEbf" version="22.1.5" type="device">
  <diagram name="Sida-1" id="uA0Vbr96SRg69AaIN0WN">
    <mxGraphModel dx="2817" dy="2101" grid="1" gridSize="10" guides="1" tooltips="1" connect="1" arrows="1" fold="1" page="1" pageScale="1" pageWidth="827" pageHeight="1169" math="0" shadow="0">
      <root>
        <mxCell id="0" />
        <mxCell id="1" parent="0" />
        <mxCell id="_IKKTvD2-Kq94dH4sCkM-1" value="MotorVehicle" style="swimlane;fontStyle=1;align=center;verticalAlign=top;childLayout=stackLayout;horizontal=1;startSize=26;horizontalStack=0;resizeParent=1;resizeParentMax=0;resizeLast=0;collapsible=1;marginBottom=0;whiteSpace=wrap;html=1;" parent="1" vertex="1">
          <mxGeometry x="-100" y="-41" width="160" height="200" as="geometry" />
        </mxCell>
        <mxCell id="_IKKTvD2-Kq94dH4sCkM-2" value="- direction : Directions&lt;br&gt;- currentSpeed : double&lt;br&gt;- x : double&lt;br&gt;- y : double&lt;br&gt;- active : boolean&lt;br&gt;- size() : int" style="text;strokeColor=none;fillColor=none;align=left;verticalAlign=top;spacingLeft=4;spacingRight=4;overflow=hidden;rotatable=0;points=[[0,0.5],[1,0.5]];portConstraint=eastwest;whiteSpace=wrap;html=1;" parent="_IKKTvD2-Kq94dH4sCkM-1" vertex="1">
          <mxGeometry y="26" width="160" height="94" as="geometry" />
        </mxCell>
        <mxCell id="_IKKTvD2-Kq94dH4sCkM-3" value="" style="line;strokeWidth=1;fillColor=none;align=left;verticalAlign=middle;spacingTop=-1;spacingLeft=3;spacingRight=3;rotatable=0;labelPosition=right;points=[];portConstraint=eastwest;strokeColor=inherit;" parent="_IKKTvD2-Kq94dH4sCkM-1" vertex="1">
          <mxGeometry y="120" width="160" height="10" as="geometry" />
        </mxCell>
        <mxCell id="_IKKTvD2-Kq94dH4sCkM-4" value="+ gas(double) : void&lt;br&gt;+ brake(double) : void&lt;br&gt;+ stopEngine()&lt;br&gt;+ startEngine()" style="text;strokeColor=none;fillColor=none;align=left;verticalAlign=top;spacingLeft=4;spacingRight=4;overflow=hidden;rotatable=0;points=[[0,0.5],[1,0.5]];portConstraint=eastwest;whiteSpace=wrap;html=1;" parent="_IKKTvD2-Kq94dH4sCkM-1" vertex="1">
          <mxGeometry y="130" width="160" height="70" as="geometry" />
        </mxCell>
        <mxCell id="_IKKTvD2-Kq94dH4sCkM-5" value="&lt;p style=&quot;margin:0px;margin-top:4px;text-align:center;&quot;&gt;&lt;i&gt;&amp;lt;&amp;lt;Interface&amp;gt;&amp;gt;&lt;/i&gt;&lt;br&gt;&lt;b&gt;Movable&lt;/b&gt;&lt;/p&gt;&lt;hr size=&quot;1&quot;&gt;&lt;p style=&quot;margin:0px;margin-left:4px;&quot;&gt;+ move() : void&lt;/p&gt;" style="verticalAlign=top;align=left;overflow=fill;fontSize=12;fontFamily=Helvetica;html=1;whiteSpace=wrap;" parent="1" vertex="1">
          <mxGeometry x="-530" y="-180" width="190" height="70" as="geometry" />
        </mxCell>
        <mxCell id="_IKKTvD2-Kq94dH4sCkM-6" value="&lt;p style=&quot;margin:0px;margin-top:4px;text-align:center;&quot;&gt;&lt;i&gt;&amp;lt;&amp;lt;Interface&amp;gt;&amp;gt;&lt;/i&gt;&lt;br&gt;&lt;b&gt;Loadable&lt;/b&gt;&lt;/p&gt;&lt;hr size=&quot;1&quot;&gt;&lt;p style=&quot;margin:0px;margin-left:4px;&quot;&gt;+ getSize() : int&lt;/p&gt;" style="verticalAlign=top;align=left;overflow=fill;fontSize=12;fontFamily=Helvetica;html=1;whiteSpace=wrap;" parent="1" vertex="1">
          <mxGeometry x="-310" y="-180" width="190" height="70" as="geometry" />
        </mxCell>
        <mxCell id="_IKKTvD2-Kq94dH4sCkM-7" value="" style="endArrow=block;dashed=1;endFill=0;endSize=12;html=1;rounded=0;entryX=0.25;entryY=1;entryDx=0;entryDy=0;exitX=0.5;exitY=0;exitDx=0;exitDy=0;strokeColor=#000000;" parent="1" source="_IKKTvD2-Kq94dH4sCkM-1" target="_IKKTvD2-Kq94dH4sCkM-6" edge="1">
          <mxGeometry width="160" relative="1" as="geometry">
            <mxPoint x="10" y="69" as="sourcePoint" />
            <mxPoint x="170" y="69" as="targetPoint" />
          </mxGeometry>
        </mxCell>
        <mxCell id="_IKKTvD2-Kq94dH4sCkM-8" value="" style="endArrow=block;dashed=1;endFill=0;endSize=12;html=1;rounded=0;entryX=0.5;entryY=1;entryDx=0;entryDy=0;exitX=0.5;exitY=0;exitDx=0;exitDy=0;strokeColor=#000000;" parent="1" source="_IKKTvD2-Kq94dH4sCkM-1" target="_IKKTvD2-Kq94dH4sCkM-5" edge="1">
          <mxGeometry width="160" relative="1" as="geometry">
            <mxPoint x="10" y="69" as="sourcePoint" />
            <mxPoint x="170" y="69" as="targetPoint" />
          </mxGeometry>
        </mxCell>
        <mxCell id="_IKKTvD2-Kq94dH4sCkM-10" value="&lt;i&gt;&amp;lt;&amp;lt;Enumerator&amp;gt;&amp;gt;&lt;br&gt;Directions&lt;br&gt;&lt;/i&gt;" style="swimlane;fontStyle=0;childLayout=stackLayout;horizontal=1;startSize=26;fillColor=none;horizontalStack=0;resizeParent=1;resizeParentMax=0;resizeLast=0;collapsible=1;marginBottom=0;whiteSpace=wrap;html=1;" parent="1" vertex="1">
          <mxGeometry x="170" y="-80" width="140" height="90" as="geometry" />
        </mxCell>
        <mxCell id="_IKKTvD2-Kq94dH4sCkM-11" value="NORTH&lt;br&gt;WEST&lt;br&gt;SOUTH&lt;br&gt;EAST" style="text;strokeColor=none;fillColor=none;align=left;verticalAlign=top;spacingLeft=4;spacingRight=4;overflow=hidden;rotatable=0;points=[[0,0.5],[1,0.5]];portConstraint=eastwest;whiteSpace=wrap;html=1;" parent="_IKKTvD2-Kq94dH4sCkM-10" vertex="1">
          <mxGeometry y="26" width="140" height="64" as="geometry" />
        </mxCell>
        <mxCell id="_IKKTvD2-Kq94dH4sCkM-14" value="Use" style="endArrow=open;endSize=12;dashed=1;html=1;rounded=0;entryX=-0.004;entryY=1.016;entryDx=0;entryDy=0;entryPerimeter=0;exitX=1;exitY=0.5;exitDx=0;exitDy=0;strokeColor=#000000;" parent="1" source="_IKKTvD2-Kq94dH4sCkM-2" target="_IKKTvD2-Kq94dH4sCkM-11" edge="1">
          <mxGeometry width="160" relative="1" as="geometry">
            <mxPoint x="10" y="-31" as="sourcePoint" />
            <mxPoint x="170" y="-31" as="targetPoint" />
          </mxGeometry>
        </mxCell>
        <mxCell id="_IKKTvD2-Kq94dH4sCkM-19" value="&lt;b&gt;Car&lt;/b&gt;" style="html=1;whiteSpace=wrap;" parent="1" vertex="1">
          <mxGeometry x="-370" y="354" width="110" height="50" as="geometry" />
        </mxCell>
        <mxCell id="_IKKTvD2-Kq94dH4sCkM-20" value="Volvo240" style="swimlane;fontStyle=1;align=center;verticalAlign=top;childLayout=stackLayout;horizontal=1;startSize=26;horizontalStack=0;resizeParent=1;resizeParentMax=0;resizeLast=0;collapsible=1;marginBottom=0;whiteSpace=wrap;html=1;" parent="1" vertex="1">
          <mxGeometry x="-580" y="617" width="160" height="86" as="geometry" />
        </mxCell>
        <mxCell id="_IKKTvD2-Kq94dH4sCkM-21" value="- trimFactor : double" style="text;strokeColor=none;fillColor=none;align=left;verticalAlign=top;spacingLeft=4;spacingRight=4;overflow=hidden;rotatable=0;points=[[0,0.5],[1,0.5]];portConstraint=eastwest;whiteSpace=wrap;html=1;" parent="_IKKTvD2-Kq94dH4sCkM-20" vertex="1">
          <mxGeometry y="26" width="160" height="26" as="geometry" />
        </mxCell>
        <mxCell id="_IKKTvD2-Kq94dH4sCkM-22" value="" style="line;strokeWidth=1;fillColor=none;align=left;verticalAlign=middle;spacingTop=-1;spacingLeft=3;spacingRight=3;rotatable=0;labelPosition=right;points=[];portConstraint=eastwest;strokeColor=inherit;" parent="_IKKTvD2-Kq94dH4sCkM-20" vertex="1">
          <mxGeometry y="52" width="160" height="8" as="geometry" />
        </mxCell>
        <mxCell id="_IKKTvD2-Kq94dH4sCkM-23" value="# speedFactor() : double" style="text;strokeColor=none;fillColor=none;align=left;verticalAlign=top;spacingLeft=4;spacingRight=4;overflow=hidden;rotatable=0;points=[[0,0.5],[1,0.5]];portConstraint=eastwest;whiteSpace=wrap;html=1;" parent="_IKKTvD2-Kq94dH4sCkM-20" vertex="1">
          <mxGeometry y="60" width="160" height="26" as="geometry" />
        </mxCell>
        <mxCell id="_IKKTvD2-Kq94dH4sCkM-24" value="Saab95" style="swimlane;fontStyle=1;align=center;verticalAlign=top;childLayout=stackLayout;horizontal=1;startSize=26;horizontalStack=0;resizeParent=1;resizeParentMax=0;resizeLast=0;collapsible=1;marginBottom=0;whiteSpace=wrap;html=1;" parent="1" vertex="1">
          <mxGeometry x="-270" y="617" width="160" height="110" as="geometry" />
        </mxCell>
        <mxCell id="_IKKTvD2-Kq94dH4sCkM-25" value="- turboOn : boolean" style="text;strokeColor=none;fillColor=none;align=left;verticalAlign=top;spacingLeft=4;spacingRight=4;overflow=hidden;rotatable=0;points=[[0,0.5],[1,0.5]];portConstraint=eastwest;whiteSpace=wrap;html=1;" parent="_IKKTvD2-Kq94dH4sCkM-24" vertex="1">
          <mxGeometry y="26" width="160" height="26" as="geometry" />
        </mxCell>
        <mxCell id="_IKKTvD2-Kq94dH4sCkM-26" value="" style="line;strokeWidth=1;fillColor=none;align=left;verticalAlign=middle;spacingTop=-1;spacingLeft=3;spacingRight=3;rotatable=0;labelPosition=right;points=[];portConstraint=eastwest;strokeColor=inherit;" parent="_IKKTvD2-Kq94dH4sCkM-24" vertex="1">
          <mxGeometry y="52" width="160" height="8" as="geometry" />
        </mxCell>
        <mxCell id="_IKKTvD2-Kq94dH4sCkM-27" value="+ setTurboOn() : void&lt;br&gt;+ setTurboOff() : void&lt;br&gt;# speedFactor() : double" style="text;strokeColor=none;fillColor=none;align=left;verticalAlign=top;spacingLeft=4;spacingRight=4;overflow=hidden;rotatable=0;points=[[0,0.5],[1,0.5]];portConstraint=eastwest;whiteSpace=wrap;html=1;" parent="_IKKTvD2-Kq94dH4sCkM-24" vertex="1">
          <mxGeometry y="60" width="160" height="50" as="geometry" />
        </mxCell>
        <mxCell id="_IKKTvD2-Kq94dH4sCkM-28" value="Extends" style="endArrow=block;endSize=16;endFill=0;html=1;rounded=0;exitX=1;exitY=0;exitDx=0;exitDy=0;entryX=0.5;entryY=1;entryDx=0;entryDy=0;strokeColor=#000000;" parent="1" source="_IKKTvD2-Kq94dH4sCkM-20" target="_IKKTvD2-Kq94dH4sCkM-19" edge="1">
          <mxGeometry width="160" relative="1" as="geometry">
            <mxPoint x="-240" y="354" as="sourcePoint" />
            <mxPoint x="-80" y="354" as="targetPoint" />
          </mxGeometry>
        </mxCell>
        <mxCell id="_IKKTvD2-Kq94dH4sCkM-29" value="Extends" style="endArrow=block;endSize=16;endFill=0;html=1;rounded=0;exitX=0;exitY=0;exitDx=0;exitDy=0;entryX=0.5;entryY=1;entryDx=0;entryDy=0;strokeColor=#000000;" parent="1" source="_IKKTvD2-Kq94dH4sCkM-24" target="_IKKTvD2-Kq94dH4sCkM-19" edge="1">
          <mxGeometry width="160" relative="1" as="geometry">
            <mxPoint x="-240" y="354" as="sourcePoint" />
            <mxPoint x="-80" y="354" as="targetPoint" />
          </mxGeometry>
        </mxCell>
        <mxCell id="_IKKTvD2-Kq94dH4sCkM-31" value="Extends" style="endArrow=block;endSize=16;endFill=0;html=1;rounded=0;exitX=1;exitY=0;exitDx=0;exitDy=0;entryX=0.003;entryY=1.014;entryDx=0;entryDy=0;entryPerimeter=0;strokeColor=#000000;" parent="1" source="_IKKTvD2-Kq94dH4sCkM-19" target="_IKKTvD2-Kq94dH4sCkM-4" edge="1">
          <mxGeometry width="160" relative="1" as="geometry">
            <mxPoint x="-220" y="269" as="sourcePoint" />
            <mxPoint x="-60" y="269" as="targetPoint" />
          </mxGeometry>
        </mxCell>
        <mxCell id="_IKKTvD2-Kq94dH4sCkM-36" value="Extends" style="endArrow=block;endSize=16;endFill=0;html=1;rounded=0;exitX=0.5;exitY=0;exitDx=0;exitDy=0;entryX=0.528;entryY=1.042;entryDx=0;entryDy=0;entryPerimeter=0;strokeColor=#000000;" parent="1" source="_IKKTvD2-Kq94dH4sCkM-37" target="_IKKTvD2-Kq94dH4sCkM-4" edge="1">
          <mxGeometry width="160" relative="1" as="geometry">
            <mxPoint x="105" y="269" as="sourcePoint" />
            <mxPoint x="250" y="349" as="targetPoint" />
          </mxGeometry>
        </mxCell>
        <mxCell id="_IKKTvD2-Kq94dH4sCkM-37" value="&lt;b&gt;PlatformVehicle&lt;/b&gt;" style="swimlane;fontStyle=0;childLayout=stackLayout;horizontal=1;startSize=26;fillColor=none;horizontalStack=0;resizeParent=1;resizeParentMax=0;resizeLast=0;collapsible=1;marginBottom=0;whiteSpace=wrap;html=1;" parent="1" vertex="1">
          <mxGeometry x="-45" y="617" width="140" height="52" as="geometry" />
        </mxCell>
        <mxCell id="_IKKTvD2-Kq94dH4sCkM-38" value="- platformAngle : double" style="text;strokeColor=none;fillColor=none;align=left;verticalAlign=top;spacingLeft=4;spacingRight=4;overflow=hidden;rotatable=0;points=[[0,0.5],[1,0.5]];portConstraint=eastwest;whiteSpace=wrap;html=1;" parent="_IKKTvD2-Kq94dH4sCkM-37" vertex="1">
          <mxGeometry y="26" width="140" height="26" as="geometry" />
        </mxCell>
        <mxCell id="_IKKTvD2-Kq94dH4sCkM-41" value="&lt;b&gt;Scania&lt;/b&gt;" style="swimlane;fontStyle=0;childLayout=stackLayout;horizontal=1;startSize=26;fillColor=none;horizontalStack=0;resizeParent=1;resizeParentMax=0;resizeLast=0;collapsible=1;marginBottom=0;whiteSpace=wrap;html=1;" parent="1" vertex="1">
          <mxGeometry x="-50" y="717" width="170" height="78" as="geometry" />
        </mxCell>
        <mxCell id="_IKKTvD2-Kq94dH4sCkM-42" value="+ tiltPlatform(double) : void" style="text;strokeColor=none;fillColor=none;align=left;verticalAlign=top;spacingLeft=4;spacingRight=4;overflow=hidden;rotatable=0;points=[[0,0.5],[1,0.5]];portConstraint=eastwest;whiteSpace=wrap;html=1;" parent="_IKKTvD2-Kq94dH4sCkM-41" vertex="1">
          <mxGeometry y="26" width="170" height="26" as="geometry" />
        </mxCell>
        <mxCell id="_IKKTvD2-Kq94dH4sCkM-43" value="# speedFactor() : double" style="text;strokeColor=none;fillColor=none;align=left;verticalAlign=top;spacingLeft=4;spacingRight=4;overflow=hidden;rotatable=0;points=[[0,0.5],[1,0.5]];portConstraint=eastwest;whiteSpace=wrap;html=1;" parent="_IKKTvD2-Kq94dH4sCkM-41" vertex="1">
          <mxGeometry y="52" width="170" height="26" as="geometry" />
        </mxCell>
        <mxCell id="_IKKTvD2-Kq94dH4sCkM-46" value="Semitruck" style="swimlane;fontStyle=1;align=center;verticalAlign=top;childLayout=stackLayout;horizontal=1;startSize=26;horizontalStack=0;resizeParent=1;resizeParentMax=0;resizeLast=0;collapsible=1;marginBottom=0;whiteSpace=wrap;html=1;" parent="1" vertex="1">
          <mxGeometry x="180" y="620" width="160" height="130" as="geometry" />
        </mxCell>
        <mxCell id="_IKKTvD2-Kq94dH4sCkM-47" value="- maxSize : int&lt;br&gt;- capacity : int&lt;br&gt;- loaded : Arraylist&amp;lt;Car&amp;gt;" style="text;strokeColor=none;fillColor=none;align=left;verticalAlign=top;spacingLeft=4;spacingRight=4;overflow=hidden;rotatable=0;points=[[0,0.5],[1,0.5]];portConstraint=eastwest;whiteSpace=wrap;html=1;" parent="_IKKTvD2-Kq94dH4sCkM-46" vertex="1">
          <mxGeometry y="26" width="160" height="54" as="geometry" />
        </mxCell>
        <mxCell id="_IKKTvD2-Kq94dH4sCkM-48" value="" style="line;strokeWidth=1;fillColor=none;align=left;verticalAlign=middle;spacingTop=-1;spacingLeft=3;spacingRight=3;rotatable=0;labelPosition=right;points=[];portConstraint=eastwest;strokeColor=inherit;" parent="_IKKTvD2-Kq94dH4sCkM-46" vertex="1">
          <mxGeometry y="80" width="160" height="8" as="geometry" />
        </mxCell>
        <mxCell id="_IKKTvD2-Kq94dH4sCkM-49" value="+ load(Car) : void&lt;br&gt;+ unload(Car) : void" style="text;strokeColor=none;fillColor=none;align=left;verticalAlign=top;spacingLeft=4;spacingRight=4;overflow=hidden;rotatable=0;points=[[0,0.5],[1,0.5]];portConstraint=eastwest;whiteSpace=wrap;html=1;" parent="_IKKTvD2-Kq94dH4sCkM-46" vertex="1">
          <mxGeometry y="88" width="160" height="42" as="geometry" />
        </mxCell>
        <mxCell id="GvxSRBtj386_9GLS7rXv-1" value="Extends" style="endArrow=block;endSize=16;endFill=0;html=1;rounded=0;exitX=0.5;exitY=0;exitDx=0;exitDy=0;entryX=1;entryY=0.5;entryDx=0;entryDy=0;strokeColor=#000000;" parent="1" source="_IKKTvD2-Kq94dH4sCkM-46" target="_IKKTvD2-Kq94dH4sCkM-4" edge="1">
          <mxGeometry width="160" relative="1" as="geometry">
            <mxPoint x="320" y="179" as="sourcePoint" />
            <mxPoint x="480" y="179" as="targetPoint" />
          </mxGeometry>
        </mxCell>
        <mxCell id="GvxSRBtj386_9GLS7rXv-3" value="Extends" style="endArrow=block;endSize=16;endFill=0;html=1;rounded=0;exitX=0.5;exitY=0;exitDx=0;exitDy=0;entryX=0.517;entryY=1.118;entryDx=0;entryDy=0;entryPerimeter=0;strokeColor=#000000;" parent="1" source="_IKKTvD2-Kq94dH4sCkM-41" target="_IKKTvD2-Kq94dH4sCkM-38" edge="1">
          <mxGeometry width="160" relative="1" as="geometry">
            <mxPoint x="-260" y="612" as="sourcePoint" />
            <mxPoint x="-100" y="612" as="targetPoint" />
          </mxGeometry>
        </mxCell>
        <mxCell id="GvxSRBtj386_9GLS7rXv-4" value="1" style="endArrow=open;html=1;endSize=12;startArrow=diamondThin;startSize=14;startFill=1;edgeStyle=orthogonalEdgeStyle;align=left;verticalAlign=bottom;rounded=0;exitX=0;exitY=0.5;exitDx=0;exitDy=0;entryX=1;entryY=0.5;entryDx=0;entryDy=0;strokeColor=#000000;" parent="1" source="_IKKTvD2-Kq94dH4sCkM-47" target="_IKKTvD2-Kq94dH4sCkM-19" edge="1">
          <mxGeometry x="-1" y="3" relative="1" as="geometry">
            <mxPoint x="-160" y="399" as="sourcePoint" />
            <mxPoint y="399" as="targetPoint" />
            <Array as="points">
              <mxPoint x="130" y="673" />
              <mxPoint x="130" y="379" />
            </Array>
          </mxGeometry>
        </mxCell>
        <mxCell id="GvxSRBtj386_9GLS7rXv-5" value="Workshop&amp;lt;V extends Motorvehicle&amp;gt;" style="swimlane;fontStyle=1;align=center;verticalAlign=top;childLayout=stackLayout;horizontal=1;startSize=26;horizontalStack=0;resizeParent=1;resizeParentMax=0;resizeLast=0;collapsible=1;marginBottom=0;whiteSpace=wrap;html=1;" parent="1" vertex="1">
          <mxGeometry x="-800" y="389" width="210" height="170" as="geometry" />
        </mxCell>
        <mxCell id="GvxSRBtj386_9GLS7rXv-6" value="+ x : double&lt;br&gt;+ y : double&lt;br&gt;+ capacity : int&lt;br&gt;+ maxSize : int&lt;br&gt;+ storage : Arraylist&amp;lt;V&amp;lt;" style="text;strokeColor=none;fillColor=none;align=left;verticalAlign=top;spacingLeft=4;spacingRight=4;overflow=hidden;rotatable=0;points=[[0,0.5],[1,0.5]];portConstraint=eastwest;whiteSpace=wrap;html=1;" parent="GvxSRBtj386_9GLS7rXv-5" vertex="1">
          <mxGeometry y="26" width="210" height="84" as="geometry" />
        </mxCell>
        <mxCell id="GvxSRBtj386_9GLS7rXv-7" value="" style="line;strokeWidth=1;fillColor=none;align=left;verticalAlign=middle;spacingTop=-1;spacingLeft=3;spacingRight=3;rotatable=0;labelPosition=right;points=[];portConstraint=eastwest;strokeColor=inherit;" parent="GvxSRBtj386_9GLS7rXv-5" vertex="1">
          <mxGeometry y="110" width="210" height="8" as="geometry" />
        </mxCell>
        <mxCell id="GvxSRBtj386_9GLS7rXv-8" value="+ load(V): void&lt;br&gt;+ unload(V) : void" style="text;strokeColor=none;fillColor=none;align=left;verticalAlign=top;spacingLeft=4;spacingRight=4;overflow=hidden;rotatable=0;points=[[0,0.5],[1,0.5]];portConstraint=eastwest;whiteSpace=wrap;html=1;" parent="GvxSRBtj386_9GLS7rXv-5" vertex="1">
          <mxGeometry y="118" width="210" height="52" as="geometry" />
        </mxCell>
        <mxCell id="GvxSRBtj386_9GLS7rXv-10" value="1" style="endArrow=open;html=1;endSize=12;startArrow=diamondThin;startSize=14;startFill=1;edgeStyle=orthogonalEdgeStyle;align=left;verticalAlign=bottom;rounded=0;exitX=0.5;exitY=0;exitDx=0;exitDy=0;entryX=0;entryY=0.5;entryDx=0;entryDy=0;strokeColor=#000000;" parent="1" source="GvxSRBtj386_9GLS7rXv-5" target="_IKKTvD2-Kq94dH4sCkM-2" edge="1">
          <mxGeometry x="-1" y="3" relative="1" as="geometry">
            <mxPoint x="-780" y="289" as="sourcePoint" />
            <mxPoint x="-250" y="29" as="targetPoint" />
            <Array as="points">
              <mxPoint x="-695" y="279" />
              <mxPoint x="-249" y="279" />
              <mxPoint x="-249" y="39" />
              <mxPoint x="-160" y="39" />
              <mxPoint x="-160" y="32" />
            </Array>
          </mxGeometry>
        </mxCell>
        <mxCell id="GvxSRBtj386_9GLS7rXv-12" value="CarController" style="swimlane;fontStyle=1;align=center;verticalAlign=top;childLayout=stackLayout;horizontal=1;startSize=26;horizontalStack=0;resizeParent=1;resizeParentMax=0;resizeLast=0;collapsible=1;marginBottom=0;whiteSpace=wrap;html=1;" parent="1" vertex="1">
          <mxGeometry x="760" y="100" width="180" height="220" as="geometry" />
        </mxCell>
        <mxCell id="GvxSRBtj386_9GLS7rXv-13" value="&lt;br&gt;cars : Arraylist&amp;lt;MotorVehicle&amp;gt;" style="text;strokeColor=none;fillColor=none;align=left;verticalAlign=top;spacingLeft=4;spacingRight=4;overflow=hidden;rotatable=0;points=[[0,0.5],[1,0.5]];portConstraint=eastwest;whiteSpace=wrap;html=1;" parent="GvxSRBtj386_9GLS7rXv-12" vertex="1">
          <mxGeometry y="26" width="180" height="74" as="geometry" />
        </mxCell>
        <mxCell id="GvxSRBtj386_9GLS7rXv-14" value="" style="line;strokeWidth=1;fillColor=none;align=left;verticalAlign=middle;spacingTop=-1;spacingLeft=3;spacingRight=3;rotatable=0;labelPosition=right;points=[];portConstraint=eastwest;strokeColor=inherit;" parent="GvxSRBtj386_9GLS7rXv-12" vertex="1">
          <mxGeometry y="100" width="180" height="8" as="geometry" />
        </mxCell>
        <mxCell id="GvxSRBtj386_9GLS7rXv-15" value="gas() : void&lt;br&gt;brake() : void&lt;br&gt;turboOn() : void&lt;br&gt;turboOff() : void&lt;br&gt;liftBed() : void&lt;br&gt;lowerBed() : void" style="text;strokeColor=none;fillColor=none;align=left;verticalAlign=top;spacingLeft=4;spacingRight=4;overflow=hidden;rotatable=0;points=[[0,0.5],[1,0.5]];portConstraint=eastwest;whiteSpace=wrap;html=1;" parent="GvxSRBtj386_9GLS7rXv-12" vertex="1">
          <mxGeometry y="108" width="180" height="112" as="geometry" />
        </mxCell>
        <mxCell id="GvxSRBtj386_9GLS7rXv-20" value="&lt;b&gt;Timer&lt;/b&gt;" style="swimlane;fontStyle=0;childLayout=stackLayout;horizontal=1;startSize=26;fillColor=none;horizontalStack=0;resizeParent=1;resizeParentMax=0;resizeLast=0;collapsible=1;marginBottom=0;whiteSpace=wrap;html=1;" parent="1" vertex="1">
          <mxGeometry x="-110" y="-380" width="250" height="52" as="geometry" />
        </mxCell>
        <mxCell id="GvxSRBtj386_9GLS7rXv-21" value="+ ActionPerformed(ActionEvent): void" style="text;strokeColor=none;fillColor=none;align=left;verticalAlign=top;spacingLeft=4;spacingRight=4;overflow=hidden;rotatable=0;points=[[0,0.5],[1,0.5]];portConstraint=eastwest;whiteSpace=wrap;html=1;" parent="GvxSRBtj386_9GLS7rXv-20" vertex="1">
          <mxGeometry y="26" width="250" height="26" as="geometry" />
        </mxCell>
        <mxCell id="GvxSRBtj386_9GLS7rXv-25" value="«interface»&lt;br&gt;&lt;b&gt;ActionListener&lt;/b&gt;" style="html=1;whiteSpace=wrap;" parent="1" vertex="1">
          <mxGeometry x="1040" y="-40" width="110" height="50" as="geometry" />
        </mxCell>
        <mxCell id="GvxSRBtj386_9GLS7rXv-28" value="CarWidgets" style="swimlane;fontStyle=1;align=center;verticalAlign=top;childLayout=stackLayout;horizontal=1;startSize=26;horizontalStack=0;resizeParent=1;resizeParentMax=0;resizeLast=0;collapsible=1;marginBottom=0;whiteSpace=wrap;html=1;" parent="1" vertex="1">
          <mxGeometry x="1060" y="108" width="230" height="204" as="geometry" />
        </mxCell>
        <mxCell id="GvxSRBtj386_9GLS7rXv-29" value="gasSpinner : JSpinner&lt;br&gt;gasButton : JButton&lt;br&gt;brakeButton : JButton&lt;br&gt;turboOnButton : JButton&lt;br&gt;turboOffButton : JButton&lt;br&gt;liftBedButton : JButton&lt;br&gt;lowerBedButton : JButton&lt;br&gt;startButton: JButton&lt;br&gt;stopButton: JButton" style="text;strokeColor=none;fillColor=none;align=left;verticalAlign=top;spacingLeft=4;spacingRight=4;overflow=hidden;rotatable=0;points=[[0,0.5],[1,0.5]];portConstraint=eastwest;whiteSpace=wrap;html=1;" parent="GvxSRBtj386_9GLS7rXv-28" vertex="1">
          <mxGeometry y="26" width="230" height="144" as="geometry" />
        </mxCell>
        <mxCell id="GvxSRBtj386_9GLS7rXv-30" value="" style="line;strokeWidth=1;fillColor=none;align=left;verticalAlign=middle;spacingTop=-1;spacingLeft=3;spacingRight=3;rotatable=0;labelPosition=right;points=[];portConstraint=eastwest;strokeColor=inherit;" parent="GvxSRBtj386_9GLS7rXv-28" vertex="1">
          <mxGeometry y="170" width="230" height="8" as="geometry" />
        </mxCell>
        <mxCell id="GvxSRBtj386_9GLS7rXv-31" value="+ actionPerformed(ActionEvent): void" style="text;strokeColor=none;fillColor=none;align=left;verticalAlign=top;spacingLeft=4;spacingRight=4;overflow=hidden;rotatable=0;points=[[0,0.5],[1,0.5]];portConstraint=eastwest;whiteSpace=wrap;html=1;" parent="GvxSRBtj386_9GLS7rXv-28" vertex="1">
          <mxGeometry y="178" width="230" height="26" as="geometry" />
        </mxCell>
        <mxCell id="GvxSRBtj386_9GLS7rXv-32" value="1" style="endArrow=open;html=1;endSize=12;startArrow=diamondThin;startSize=14;startFill=1;edgeStyle=orthogonalEdgeStyle;align=left;verticalAlign=bottom;rounded=0;entryX=1.016;entryY=0.875;entryDx=0;entryDy=0;entryPerimeter=0;exitX=0;exitY=0.5;exitDx=0;exitDy=0;strokeColor=#000000;" parent="1" source="GvxSRBtj386_9GLS7rXv-13" target="_IKKTvD2-Kq94dH4sCkM-2" edge="1">
          <mxGeometry x="-1" y="3" relative="1" as="geometry">
            <mxPoint x="820" y="190" as="sourcePoint" />
            <mxPoint x="980" y="190" as="targetPoint" />
          </mxGeometry>
        </mxCell>
        <mxCell id="GvxSRBtj386_9GLS7rXv-37" value="&lt;b&gt;ActionEvent&lt;/b&gt;" style="html=1;whiteSpace=wrap;" parent="1" vertex="1">
          <mxGeometry x="1186" y="-41" width="110" height="50" as="geometry" />
        </mxCell>
        <mxCell id="GvxSRBtj386_9GLS7rXv-38" value="" style="endArrow=block;dashed=1;endFill=0;endSize=12;html=1;rounded=0;exitX=0.5;exitY=0;exitDx=0;exitDy=0;entryX=0.25;entryY=1;entryDx=0;entryDy=0;strokeColor=#000000;" parent="1" source="GvxSRBtj386_9GLS7rXv-28" target="GvxSRBtj386_9GLS7rXv-25" edge="1">
          <mxGeometry width="160" relative="1" as="geometry">
            <mxPoint x="1010" y="180" as="sourcePoint" />
            <mxPoint x="1190" y="20" as="targetPoint" />
          </mxGeometry>
        </mxCell>
        <mxCell id="GvxSRBtj386_9GLS7rXv-39" value="Use" style="endArrow=open;endSize=12;dashed=1;html=1;rounded=0;exitX=0.75;exitY=0;exitDx=0;exitDy=0;entryX=0.5;entryY=1;entryDx=0;entryDy=0;strokeColor=#000000;" parent="1" source="GvxSRBtj386_9GLS7rXv-28" target="GvxSRBtj386_9GLS7rXv-37" edge="1">
          <mxGeometry width="160" relative="1" as="geometry">
            <mxPoint x="1010" y="180" as="sourcePoint" />
            <mxPoint x="1170" y="180" as="targetPoint" />
          </mxGeometry>
        </mxCell>
        <mxCell id="GvxSRBtj386_9GLS7rXv-43" value="Use" style="endArrow=open;endSize=12;dashed=1;html=1;rounded=0;exitX=-0.025;exitY=0.799;exitDx=0;exitDy=0;exitPerimeter=0;entryX=1.033;entryY=0.253;entryDx=0;entryDy=0;entryPerimeter=0;strokeColor=#000000;" parent="1" source="GvxSRBtj386_9GLS7rXv-29" target="GvxSRBtj386_9GLS7rXv-15" edge="1">
          <mxGeometry width="160" relative="1" as="geometry">
            <mxPoint x="970" y="268" as="sourcePoint" />
            <mxPoint x="1130" y="268" as="targetPoint" />
          </mxGeometry>
        </mxCell>
        <mxCell id="GvxSRBtj386_9GLS7rXv-45" value="DrawPanel" style="swimlane;fontStyle=1;align=center;verticalAlign=top;childLayout=stackLayout;horizontal=1;startSize=26;horizontalStack=0;resizeParent=1;resizeParentMax=0;resizeLast=0;collapsible=1;marginBottom=0;whiteSpace=wrap;html=1;" parent="1" vertex="1">
          <mxGeometry x="1020" y="-480" width="210" height="140" as="geometry" />
        </mxCell>
        <mxCell id="GvxSRBtj386_9GLS7rXv-46" value="- points: ArrayList&amp;lt;Point&amp;gt;&lt;br&gt;- images: ArrayList&amp;lt;BufferedImage&amp;gt;" style="text;strokeColor=none;fillColor=none;align=left;verticalAlign=top;spacingLeft=4;spacingRight=4;overflow=hidden;rotatable=0;points=[[0,0.5],[1,0.5]];portConstraint=eastwest;whiteSpace=wrap;html=1;" parent="GvxSRBtj386_9GLS7rXv-45" vertex="1">
          <mxGeometry y="26" width="210" height="64" as="geometry" />
        </mxCell>
        <mxCell id="GvxSRBtj386_9GLS7rXv-47" value="" style="line;strokeWidth=1;fillColor=none;align=left;verticalAlign=middle;spacingTop=-1;spacingLeft=3;spacingRight=3;rotatable=0;labelPosition=right;points=[];portConstraint=eastwest;strokeColor=inherit;" parent="GvxSRBtj386_9GLS7rXv-45" vertex="1">
          <mxGeometry y="90" width="210" height="8" as="geometry" />
        </mxCell>
        <mxCell id="GvxSRBtj386_9GLS7rXv-48" value="moveit(int, int, int) : void&lt;br&gt;# paintComponent(Graphics) : void" style="text;strokeColor=none;fillColor=none;align=left;verticalAlign=top;spacingLeft=4;spacingRight=4;overflow=hidden;rotatable=0;points=[[0,0.5],[1,0.5]];portConstraint=eastwest;whiteSpace=wrap;html=1;" parent="GvxSRBtj386_9GLS7rXv-45" vertex="1">
          <mxGeometry y="98" width="210" height="42" as="geometry" />
        </mxCell>
        <mxCell id="GvxSRBtj386_9GLS7rXv-56" value="Images" style="shape=folder;fontStyle=1;spacingTop=10;tabWidth=40;tabHeight=14;tabPosition=left;html=1;whiteSpace=wrap;" parent="1" vertex="1">
          <mxGeometry x="1370" y="-415" width="70" height="50" as="geometry" />
        </mxCell>
        <mxCell id="GvxSRBtj386_9GLS7rXv-57" value="" style="endArrow=block;dashed=1;endFill=0;endSize=12;html=1;rounded=0;exitX=1.021;exitY=1.089;exitDx=0;exitDy=0;exitPerimeter=0;entryX=0;entryY=0;entryDx=0;entryDy=32;entryPerimeter=0;strokeColor=#000000;" parent="1" source="GvxSRBtj386_9GLS7rXv-46" target="GvxSRBtj386_9GLS7rXv-56" edge="1">
          <mxGeometry width="160" relative="1" as="geometry">
            <mxPoint x="1260" y="-315" as="sourcePoint" />
            <mxPoint x="1420" y="-315" as="targetPoint" />
          </mxGeometry>
        </mxCell>
        <mxCell id="GvxSRBtj386_9GLS7rXv-73" value="&lt;b&gt;Application&lt;/b&gt;" style="html=1;whiteSpace=wrap;" parent="1" vertex="1">
          <mxGeometry x="540" y="-560" width="110" height="50" as="geometry" />
        </mxCell>
        <mxCell id="GvxSRBtj386_9GLS7rXv-74" value="&lt;b&gt;MotorVehicleModel&lt;/b&gt;" style="html=1;whiteSpace=wrap;" parent="1" vertex="1">
          <mxGeometry x="245" y="-260" width="110" height="50" as="geometry" />
        </mxCell>
        <mxCell id="GvxSRBtj386_9GLS7rXv-75" value="" style="endArrow=open;startArrow=circlePlus;endFill=0;startFill=0;endSize=8;html=1;rounded=0;exitX=0;exitY=0;exitDx=0;exitDy=0;entryX=1;entryY=0.5;entryDx=0;entryDy=0;" parent="1" source="GvxSRBtj386_9GLS7rXv-74" target="GvxSRBtj386_9GLS7rXv-21" edge="1">
          <mxGeometry width="160" relative="1" as="geometry">
            <mxPoint x="660" y="-60" as="sourcePoint" />
            <mxPoint x="820" y="-60" as="targetPoint" />
          </mxGeometry>
        </mxCell>
        <mxCell id="GvxSRBtj386_9GLS7rXv-76" value="1" style="endArrow=open;html=1;endSize=12;startArrow=diamondThin;startSize=14;startFill=1;edgeStyle=orthogonalEdgeStyle;align=left;verticalAlign=bottom;rounded=0;entryX=0.5;entryY=0;entryDx=0;entryDy=0;exitX=0.25;exitY=1;exitDx=0;exitDy=0;" parent="1" source="GvxSRBtj386_9GLS7rXv-73" target="GvxSRBtj386_9GLS7rXv-74" edge="1">
          <mxGeometry x="-1" y="3" relative="1" as="geometry">
            <mxPoint x="440" y="-489" as="sourcePoint" />
            <mxPoint x="1090" y="-290" as="targetPoint" />
            <Array as="points">
              <mxPoint x="568" y="-489" />
              <mxPoint x="390" y="-489" />
              <mxPoint x="390" y="-380" />
              <mxPoint x="300" y="-380" />
            </Array>
          </mxGeometry>
        </mxCell>
        <mxCell id="GvxSRBtj386_9GLS7rXv-79" value="«interface»&lt;br&gt;UpdateObserver" style="html=1;whiteSpace=wrap;" parent="1" vertex="1">
          <mxGeometry x="820" y="-390" width="110" height="50" as="geometry" />
        </mxCell>
        <mxCell id="GvxSRBtj386_9GLS7rXv-81" value="" style="endArrow=block;dashed=1;endFill=0;endSize=12;html=1;rounded=0;exitX=0;exitY=0.5;exitDx=0;exitDy=0;entryX=1;entryY=0.5;entryDx=0;entryDy=0;" parent="1" source="GvxSRBtj386_9GLS7rXv-48" target="GvxSRBtj386_9GLS7rXv-79" edge="1">
          <mxGeometry width="160" relative="1" as="geometry">
            <mxPoint x="1170" y="-450" as="sourcePoint" />
            <mxPoint x="1330" y="-450" as="targetPoint" />
          </mxGeometry>
        </mxCell>
        <mxCell id="GvxSRBtj386_9GLS7rXv-82" value="1" style="endArrow=open;html=1;endSize=12;startArrow=diamondThin;startSize=14;startFill=1;edgeStyle=orthogonalEdgeStyle;align=left;verticalAlign=bottom;rounded=0;exitX=1;exitY=0.5;exitDx=0;exitDy=0;entryX=0;entryY=0.5;entryDx=0;entryDy=0;" parent="1" source="GvxSRBtj386_9GLS7rXv-74" target="GvxSRBtj386_9GLS7rXv-79" edge="1">
          <mxGeometry x="-1" y="3" relative="1" as="geometry">
            <mxPoint x="940" y="20" as="sourcePoint" />
            <mxPoint x="1100" y="20" as="targetPoint" />
          </mxGeometry>
        </mxCell>
        <mxCell id="GvxSRBtj386_9GLS7rXv-83" value="1" style="endArrow=open;html=1;endSize=12;startArrow=diamondThin;startSize=14;startFill=1;edgeStyle=orthogonalEdgeStyle;align=left;verticalAlign=bottom;rounded=0;exitX=0.75;exitY=1;exitDx=0;exitDy=0;entryX=0.5;entryY=0;entryDx=0;entryDy=0;" parent="1" source="GvxSRBtj386_9GLS7rXv-73" target="GvxSRBtj386_9GLS7rXv-12" edge="1">
          <mxGeometry x="-1" y="3" relative="1" as="geometry">
            <mxPoint x="800" y="100" as="sourcePoint" />
            <mxPoint x="960" y="100" as="targetPoint" />
            <Array as="points">
              <mxPoint x="623" y="-60" />
              <mxPoint x="850" y="-60" />
            </Array>
          </mxGeometry>
        </mxCell>
        <mxCell id="GvxSRBtj386_9GLS7rXv-85" value="1" style="endArrow=open;html=1;endSize=12;startArrow=diamondThin;startSize=14;startFill=1;edgeStyle=orthogonalEdgeStyle;align=left;verticalAlign=bottom;rounded=0;exitX=1;exitY=1;exitDx=0;exitDy=0;entryX=-0.009;entryY=0.141;entryDx=0;entryDy=0;entryPerimeter=0;" parent="1" edge="1">
          <mxGeometry x="-1" y="3" relative="1" as="geometry">
            <mxPoint x="650" y="-520.0000000000002" as="sourcePoint" />
            <mxPoint x="1057.9299999999994" y="144.3040000000001" as="targetPoint" />
            <Array as="points">
              <mxPoint x="740" y="-520" />
              <mxPoint x="740" y="-100" />
              <mxPoint x="980" y="-100" />
              <mxPoint x="980" y="144" />
            </Array>
          </mxGeometry>
        </mxCell>
        <mxCell id="GvxSRBtj386_9GLS7rXv-87" value="«interface»&lt;br&gt;&lt;b&gt;ActionListener&lt;/b&gt;" style="html=1;whiteSpace=wrap;" parent="1" vertex="1">
          <mxGeometry x="-120" y="-529" width="110" height="50" as="geometry" />
        </mxCell>
        <mxCell id="GvxSRBtj386_9GLS7rXv-88" value="&lt;b&gt;ActionEvent&lt;/b&gt;" style="html=1;whiteSpace=wrap;" parent="1" vertex="1">
          <mxGeometry x="26" y="-530" width="110" height="50" as="geometry" />
        </mxCell>
        <mxCell id="GvxSRBtj386_9GLS7rXv-89" value="Use" style="endArrow=open;endSize=12;dashed=1;html=1;rounded=0;exitX=0.75;exitY=0;exitDx=0;exitDy=0;entryX=0.5;entryY=1;entryDx=0;entryDy=0;" parent="1" source="GvxSRBtj386_9GLS7rXv-20" target="GvxSRBtj386_9GLS7rXv-88" edge="1">
          <mxGeometry width="160" relative="1" as="geometry">
            <mxPoint x="520" y="100" as="sourcePoint" />
            <mxPoint x="680" y="100" as="targetPoint" />
          </mxGeometry>
        </mxCell>
        <mxCell id="GvxSRBtj386_9GLS7rXv-90" value="" style="endArrow=block;dashed=1;endFill=0;endSize=12;html=1;rounded=0;exitX=0.25;exitY=0;exitDx=0;exitDy=0;entryX=0.5;entryY=1;entryDx=0;entryDy=0;" parent="1" source="GvxSRBtj386_9GLS7rXv-20" target="GvxSRBtj386_9GLS7rXv-87" edge="1">
          <mxGeometry width="160" relative="1" as="geometry">
            <mxPoint x="520" y="100" as="sourcePoint" />
            <mxPoint x="680" y="100" as="targetPoint" />
          </mxGeometry>
        </mxCell>
        <mxCell id="GvxSRBtj386_9GLS7rXv-91" value="1" style="endArrow=open;html=1;endSize=12;startArrow=diamondThin;startSize=14;startFill=1;edgeStyle=orthogonalEdgeStyle;align=left;verticalAlign=bottom;rounded=0;exitX=0;exitY=1;exitDx=0;exitDy=0;entryX=0.5;entryY=0;entryDx=0;entryDy=0;" parent="1" source="GvxSRBtj386_9GLS7rXv-74" target="_IKKTvD2-Kq94dH4sCkM-1" edge="1">
          <mxGeometry x="-1" y="3" relative="1" as="geometry">
            <mxPoint x="520" y="260" as="sourcePoint" />
            <mxPoint x="680" y="260" as="targetPoint" />
            <Array as="points">
              <mxPoint x="245" y="-140" />
              <mxPoint x="-20" y="-140" />
            </Array>
          </mxGeometry>
        </mxCell>
        <mxCell id="VZkbXW3jdWE0Uo5BMhJD-1" value="1" style="endArrow=open;html=1;endSize=12;startArrow=diamondThin;startSize=14;startFill=1;edgeStyle=orthogonalEdgeStyle;align=left;verticalAlign=bottom;rounded=0;exitX=1;exitY=0.25;exitDx=0;exitDy=0;entryX=0.25;entryY=0;entryDx=0;entryDy=0;" parent="1" source="GvxSRBtj386_9GLS7rXv-73" target="GvxSRBtj386_9GLS7rXv-45" edge="1">
          <mxGeometry x="-1" y="3" relative="1" as="geometry">
            <mxPoint x="800" y="-320" as="sourcePoint" />
            <mxPoint x="960" y="-320" as="targetPoint" />
          </mxGeometry>
        </mxCell>
        <mxCell id="PfVD4JJxPIMW8YEd3Mqt-1" value="MovementState" style="html=1;whiteSpace=wrap;" vertex="1" parent="1">
          <mxGeometry x="-560" y="140" width="110" height="50" as="geometry" />
        </mxCell>
        <mxCell id="PfVD4JJxPIMW8YEd3Mqt-2" value="MovementStateFalse" style="html=1;whiteSpace=wrap;" vertex="1" parent="1">
          <mxGeometry x="-760" y="100" width="110" height="50" as="geometry" />
        </mxCell>
        <mxCell id="PfVD4JJxPIMW8YEd3Mqt-3" value="MovementStateTrue" style="html=1;whiteSpace=wrap;" vertex="1" parent="1">
          <mxGeometry x="-760" y="188" width="110" height="50" as="geometry" />
        </mxCell>
        <mxCell id="PfVD4JJxPIMW8YEd3Mqt-4" value="Extends" style="endArrow=block;endSize=16;endFill=0;html=1;rounded=0;exitX=1;exitY=0.5;exitDx=0;exitDy=0;entryX=0;entryY=1;entryDx=0;entryDy=0;" edge="1" parent="1" source="PfVD4JJxPIMW8YEd3Mqt-3" target="PfVD4JJxPIMW8YEd3Mqt-1">
          <mxGeometry width="160" relative="1" as="geometry">
            <mxPoint x="-100" y="470" as="sourcePoint" />
            <mxPoint x="60" y="470" as="targetPoint" />
          </mxGeometry>
        </mxCell>
        <mxCell id="PfVD4JJxPIMW8YEd3Mqt-5" value="Extends" style="endArrow=block;endSize=16;endFill=0;html=1;rounded=0;exitX=1;exitY=0.5;exitDx=0;exitDy=0;entryX=0;entryY=0.25;entryDx=0;entryDy=0;" edge="1" parent="1" source="PfVD4JJxPIMW8YEd3Mqt-2" target="PfVD4JJxPIMW8YEd3Mqt-1">
          <mxGeometry width="160" relative="1" as="geometry">
            <mxPoint x="-100" y="470" as="sourcePoint" />
            <mxPoint x="60" y="470" as="targetPoint" />
          </mxGeometry>
        </mxCell>
        <mxCell id="PfVD4JJxPIMW8YEd3Mqt-7" value="ScaniaPlatfromState" style="html=1;whiteSpace=wrap;" vertex="1" parent="1">
          <mxGeometry x="70" y="860" width="110" height="50" as="geometry" />
        </mxCell>
        <mxCell id="PfVD4JJxPIMW8YEd3Mqt-8" value="StateUp" style="html=1;whiteSpace=wrap;" vertex="1" parent="1">
          <mxGeometry y="960" width="110" height="50" as="geometry" />
        </mxCell>
        <mxCell id="PfVD4JJxPIMW8YEd3Mqt-9" value="StateDown" style="html=1;whiteSpace=wrap;" vertex="1" parent="1">
          <mxGeometry x="160" y="960" width="110" height="50" as="geometry" />
        </mxCell>
        <mxCell id="PfVD4JJxPIMW8YEd3Mqt-10" value="1" style="endArrow=open;html=1;endSize=12;startArrow=diamondThin;startSize=14;startFill=1;edgeStyle=orthogonalEdgeStyle;align=left;verticalAlign=bottom;rounded=0;exitX=-0.02;exitY=0.42;exitDx=0;exitDy=0;exitPerimeter=0;entryX=1;entryY=0.5;entryDx=0;entryDy=0;" edge="1" parent="1" source="_IKKTvD2-Kq94dH4sCkM-4" target="PfVD4JJxPIMW8YEd3Mqt-1">
          <mxGeometry x="-1" y="3" relative="1" as="geometry">
            <mxPoint x="-290" y="160" as="sourcePoint" />
            <mxPoint x="-130" y="160" as="targetPoint" />
          </mxGeometry>
        </mxCell>
        <mxCell id="PfVD4JJxPIMW8YEd3Mqt-11" value="ActivationState" style="html=1;whiteSpace=wrap;" vertex="1" parent="1">
          <mxGeometry x="-555" width="110" height="50" as="geometry" />
        </mxCell>
        <mxCell id="PfVD4JJxPIMW8YEd3Mqt-12" value="ActiveState" style="html=1;whiteSpace=wrap;" vertex="1" parent="1">
          <mxGeometry x="-730" y="-60" width="110" height="50" as="geometry" />
        </mxCell>
        <mxCell id="PfVD4JJxPIMW8YEd3Mqt-13" value="InactiveState" style="html=1;whiteSpace=wrap;" vertex="1" parent="1">
          <mxGeometry x="-730" width="110" height="50" as="geometry" />
        </mxCell>
        <mxCell id="PfVD4JJxPIMW8YEd3Mqt-14" value="Extends" style="endArrow=block;endSize=16;endFill=0;html=1;rounded=0;exitX=1;exitY=0.5;exitDx=0;exitDy=0;entryX=0;entryY=0.75;entryDx=0;entryDy=0;" edge="1" parent="1" source="PfVD4JJxPIMW8YEd3Mqt-13" target="PfVD4JJxPIMW8YEd3Mqt-11">
          <mxGeometry width="160" relative="1" as="geometry">
            <mxPoint x="-490" y="110" as="sourcePoint" />
            <mxPoint x="-330" y="110" as="targetPoint" />
          </mxGeometry>
        </mxCell>
        <mxCell id="PfVD4JJxPIMW8YEd3Mqt-15" value="Extends" style="endArrow=block;endSize=16;endFill=0;html=1;rounded=0;exitX=1;exitY=0.25;exitDx=0;exitDy=0;entryX=0;entryY=0;entryDx=0;entryDy=0;" edge="1" parent="1" source="PfVD4JJxPIMW8YEd3Mqt-12" target="PfVD4JJxPIMW8YEd3Mqt-11">
          <mxGeometry width="160" relative="1" as="geometry">
            <mxPoint x="-490" y="110" as="sourcePoint" />
            <mxPoint x="-330" y="110" as="targetPoint" />
          </mxGeometry>
        </mxCell>
        <mxCell id="PfVD4JJxPIMW8YEd3Mqt-16" value="1" style="endArrow=open;html=1;endSize=12;startArrow=diamondThin;startSize=14;startFill=1;edgeStyle=orthogonalEdgeStyle;align=left;verticalAlign=bottom;rounded=0;entryX=1;entryY=0.25;entryDx=0;entryDy=0;exitX=-0.01;exitY=0.185;exitDx=0;exitDy=0;exitPerimeter=0;" edge="1" parent="1" source="_IKKTvD2-Kq94dH4sCkM-2" target="PfVD4JJxPIMW8YEd3Mqt-11">
          <mxGeometry x="-1" y="3" relative="1" as="geometry">
            <mxPoint x="-370" y="24.599999999999994" as="sourcePoint" />
            <mxPoint x="-210" y="24.599999999999994" as="targetPoint" />
          </mxGeometry>
        </mxCell>
        <mxCell id="PfVD4JJxPIMW8YEd3Mqt-17" value="Extends" style="endArrow=block;endSize=16;endFill=0;html=1;rounded=0;exitX=0.5;exitY=0;exitDx=0;exitDy=0;entryX=0;entryY=1;entryDx=0;entryDy=0;" edge="1" parent="1" source="PfVD4JJxPIMW8YEd3Mqt-8" target="PfVD4JJxPIMW8YEd3Mqt-7">
          <mxGeometry width="160" relative="1" as="geometry">
            <mxPoint x="-20" y="880" as="sourcePoint" />
            <mxPoint x="140" y="880" as="targetPoint" />
          </mxGeometry>
        </mxCell>
        <mxCell id="PfVD4JJxPIMW8YEd3Mqt-18" value="Extends" style="endArrow=block;endSize=16;endFill=0;html=1;rounded=0;exitX=0;exitY=0;exitDx=0;exitDy=0;entryX=0.5;entryY=1;entryDx=0;entryDy=0;" edge="1" parent="1" source="PfVD4JJxPIMW8YEd3Mqt-9" target="PfVD4JJxPIMW8YEd3Mqt-7">
          <mxGeometry width="160" relative="1" as="geometry">
            <mxPoint x="-20" y="880" as="sourcePoint" />
            <mxPoint x="140" y="880" as="targetPoint" />
          </mxGeometry>
        </mxCell>
        <mxCell id="PfVD4JJxPIMW8YEd3Mqt-19" value="1" style="endArrow=open;html=1;endSize=12;startArrow=diamondThin;startSize=14;startFill=1;edgeStyle=orthogonalEdgeStyle;align=left;verticalAlign=bottom;rounded=0;exitX=1;exitY=0.5;exitDx=0;exitDy=0;entryX=0.5;entryY=0;entryDx=0;entryDy=0;" edge="1" parent="1" source="_IKKTvD2-Kq94dH4sCkM-43" target="PfVD4JJxPIMW8YEd3Mqt-7">
          <mxGeometry x="-1" y="3" relative="1" as="geometry">
            <mxPoint x="70" y="700" as="sourcePoint" />
            <mxPoint x="230" y="700" as="targetPoint" />
          </mxGeometry>
        </mxCell>
        <mxCell id="PfVD4JJxPIMW8YEd3Mqt-20" value="SemiTruckPlatfromState" style="html=1;whiteSpace=wrap;" vertex="1" parent="1">
          <mxGeometry x="550" y="690" width="110" height="50" as="geometry" />
        </mxCell>
        <mxCell id="PfVD4JJxPIMW8YEd3Mqt-21" value="StateUp" style="html=1;whiteSpace=wrap;" vertex="1" parent="1">
          <mxGeometry x="490" y="810" width="110" height="50" as="geometry" />
        </mxCell>
        <mxCell id="PfVD4JJxPIMW8YEd3Mqt-22" value="StateDown" style="html=1;whiteSpace=wrap;" vertex="1" parent="1">
          <mxGeometry x="640" y="810" width="110" height="50" as="geometry" />
        </mxCell>
        <mxCell id="PfVD4JJxPIMW8YEd3Mqt-23" value="Extends" style="endArrow=block;endSize=16;endFill=0;html=1;rounded=0;exitX=0.25;exitY=0;exitDx=0;exitDy=0;entryX=0;entryY=1;entryDx=0;entryDy=0;" edge="1" parent="1" source="PfVD4JJxPIMW8YEd3Mqt-21" target="PfVD4JJxPIMW8YEd3Mqt-20">
          <mxGeometry width="160" relative="1" as="geometry">
            <mxPoint x="590" y="660" as="sourcePoint" />
            <mxPoint x="750" y="660" as="targetPoint" />
          </mxGeometry>
        </mxCell>
        <mxCell id="PfVD4JJxPIMW8YEd3Mqt-24" value="Extends" style="endArrow=block;endSize=16;endFill=0;html=1;rounded=0;exitX=0.5;exitY=0;exitDx=0;exitDy=0;entryX=1;entryY=1;entryDx=0;entryDy=0;" edge="1" parent="1" source="PfVD4JJxPIMW8YEd3Mqt-22" target="PfVD4JJxPIMW8YEd3Mqt-20">
          <mxGeometry width="160" relative="1" as="geometry">
            <mxPoint x="590" y="660" as="sourcePoint" />
            <mxPoint x="750" y="660" as="targetPoint" />
          </mxGeometry>
        </mxCell>
        <mxCell id="PfVD4JJxPIMW8YEd3Mqt-25" value="1" style="endArrow=open;html=1;endSize=12;startArrow=diamondThin;startSize=14;startFill=1;edgeStyle=orthogonalEdgeStyle;align=left;verticalAlign=bottom;rounded=0;exitX=1.008;exitY=0.004;exitDx=0;exitDy=0;exitPerimeter=0;entryX=0;entryY=0.5;entryDx=0;entryDy=0;" edge="1" parent="1" source="_IKKTvD2-Kq94dH4sCkM-49" target="PfVD4JJxPIMW8YEd3Mqt-20">
          <mxGeometry x="-1" y="3" relative="1" as="geometry">
            <mxPoint x="500" y="680" as="sourcePoint" />
            <mxPoint x="660" y="680" as="targetPoint" />
          </mxGeometry>
        </mxCell>
        <mxCell id="PfVD4JJxPIMW8YEd3Mqt-26" value="MotorVehicleFactory" style="html=1;whiteSpace=wrap;" vertex="1" parent="1">
          <mxGeometry x="340" y="220" width="110" height="50" as="geometry" />
        </mxCell>
        <mxCell id="PfVD4JJxPIMW8YEd3Mqt-27" value="Use" style="endArrow=open;endSize=12;dashed=1;html=1;rounded=0;exitX=0;exitY=1;exitDx=0;exitDy=0;entryX=0.75;entryY=0;entryDx=0;entryDy=0;" edge="1" parent="1" source="PfVD4JJxPIMW8YEd3Mqt-26" target="_IKKTvD2-Kq94dH4sCkM-41">
          <mxGeometry width="160" relative="1" as="geometry">
            <mxPoint x="320" y="250" as="sourcePoint" />
            <mxPoint x="480" y="250" as="targetPoint" />
          </mxGeometry>
        </mxCell>
        <mxCell id="PfVD4JJxPIMW8YEd3Mqt-28" value="Use" style="endArrow=open;endSize=12;dashed=1;html=1;rounded=0;exitX=0;exitY=0.25;exitDx=0;exitDy=0;entryX=1;entryY=0;entryDx=0;entryDy=0;" edge="1" parent="1" source="PfVD4JJxPIMW8YEd3Mqt-26" target="_IKKTvD2-Kq94dH4sCkM-24">
          <mxGeometry width="160" relative="1" as="geometry">
            <mxPoint x="320" y="250" as="sourcePoint" />
            <mxPoint x="480" y="250" as="targetPoint" />
          </mxGeometry>
        </mxCell>
        <mxCell id="PfVD4JJxPIMW8YEd3Mqt-29" value="Use" style="endArrow=open;endSize=12;dashed=1;html=1;rounded=0;exitX=0;exitY=0.75;exitDx=0;exitDy=0;entryX=1;entryY=0;entryDx=0;entryDy=0;" edge="1" parent="1" source="PfVD4JJxPIMW8YEd3Mqt-26" target="_IKKTvD2-Kq94dH4sCkM-20">
          <mxGeometry width="160" relative="1" as="geometry">
            <mxPoint x="320" y="250" as="sourcePoint" />
            <mxPoint x="480" y="250" as="targetPoint" />
          </mxGeometry>
        </mxCell>
        <mxCell id="PfVD4JJxPIMW8YEd3Mqt-30" value="Use" style="endArrow=open;endSize=12;dashed=1;html=1;rounded=0;exitX=1;exitY=1;exitDx=0;exitDy=0;entryX=0.5;entryY=0;entryDx=0;entryDy=0;" edge="1" parent="1" source="GvxSRBtj386_9GLS7rXv-74" target="PfVD4JJxPIMW8YEd3Mqt-26">
          <mxGeometry width="160" relative="1" as="geometry">
            <mxPoint x="310" as="sourcePoint" />
            <mxPoint x="470" as="targetPoint" />
          </mxGeometry>
        </mxCell>
        <mxCell id="PfVD4JJxPIMW8YEd3Mqt-31" value="Use" style="endArrow=open;endSize=12;dashed=1;html=1;rounded=0;exitX=0;exitY=0;exitDx=0;exitDy=0;entryX=1;entryY=1;entryDx=0;entryDy=0;" edge="1" parent="1" source="GvxSRBtj386_9GLS7rXv-12" target="GvxSRBtj386_9GLS7rXv-74">
          <mxGeometry width="160" relative="1" as="geometry">
            <mxPoint x="610" y="10" as="sourcePoint" />
            <mxPoint x="770" y="10" as="targetPoint" />
          </mxGeometry>
        </mxCell>
      </root>
    </mxGraphModel>
  </diagram>
</mxfile>
